<mxfile host="Electron" agent="Mozilla/5.0 (Windows NT 10.0; Win64; x64) AppleWebKit/537.36 (KHTML, like Gecko) draw.io/26.2.2 Chrome/134.0.6998.178 Electron/35.1.2 Safari/537.36" version="26.2.2">
  <diagram name="Page-1" id="N0IEVJpjKOm_r9fm-Vwp">
    <mxGraphModel dx="10299" dy="12756" grid="1" gridSize="10" guides="1" tooltips="1" connect="1" arrows="1" fold="1" page="1" pageScale="1" pageWidth="850" pageHeight="1100" math="0" shadow="0">
      <root>
        <mxCell id="0" />
        <mxCell id="1" parent="0" />
        <mxCell id="5_LL6eo8elXBJWa_j0Nt-36" value="&lt;font style=&quot;font-size: 24px;&quot;&gt;BagUI&lt;/font&gt;" style="swimlane;whiteSpace=wrap;html=1;strokeWidth=3;fillColor=#1ba1e2;fontColor=#ffffff;strokeColor=#006EAF;" vertex="1" parent="1">
          <mxGeometry x="1290" y="-190" width="1540" height="930" as="geometry" />
        </mxCell>
        <mxCell id="5_LL6eo8elXBJWa_j0Nt-1" value="InventoryUI" style="swimlane;whiteSpace=wrap;html=1;strokeWidth=3;fillColor=#60a917;fontColor=#ffffff;strokeColor=#2D7600;" vertex="1" parent="5_LL6eo8elXBJWa_j0Nt-36">
          <mxGeometry x="90.5" y="100" width="439" height="320" as="geometry" />
        </mxCell>
        <mxCell id="5_LL6eo8elXBJWa_j0Nt-22" value="Each item displays its icon and amount (except for some with max amount = 1)&amp;nbsp;" style="rounded=1;whiteSpace=wrap;html=1;" vertex="1" parent="5_LL6eo8elXBJWa_j0Nt-1">
          <mxGeometry x="229" y="130" width="120" height="60" as="geometry" />
        </mxCell>
        <mxCell id="5_LL6eo8elXBJWa_j0Nt-24" value="Drag and drop items among slots" style="rounded=1;whiteSpace=wrap;html=1;" vertex="1" parent="5_LL6eo8elXBJWa_j0Nt-1">
          <mxGeometry x="229" y="50" width="120" height="60" as="geometry" />
        </mxCell>
        <mxCell id="5_LL6eo8elXBJWa_j0Nt-25" value="Display all items and slots&lt;span style=&quot;color: light-dark(rgb(0, 0, 0), rgb(255, 255, 255)); background-color: transparent;&quot;&gt;&amp;nbsp;in grid layout&lt;/span&gt;" style="rounded=1;whiteSpace=wrap;html=1;" vertex="1" parent="5_LL6eo8elXBJWa_j0Nt-1">
          <mxGeometry x="90" y="50" width="120" height="60" as="geometry" />
        </mxCell>
        <mxCell id="5_LL6eo8elXBJWa_j0Nt-31" value="Slot amount = inventory capacity" style="rounded=1;whiteSpace=wrap;html=1;" vertex="1" parent="5_LL6eo8elXBJWa_j0Nt-1">
          <mxGeometry x="90" y="130" width="120" height="60" as="geometry" />
        </mxCell>
        <mxCell id="5_LL6eo8elXBJWa_j0Nt-33" value="Scroll in vertical" style="rounded=1;whiteSpace=wrap;html=1;" vertex="1" parent="5_LL6eo8elXBJWa_j0Nt-1">
          <mxGeometry x="229" y="210" width="120" height="60" as="geometry" />
        </mxCell>
        <mxCell id="5_LL6eo8elXBJWa_j0Nt-34" value="Item need to rememeber its slot" style="rounded=1;whiteSpace=wrap;html=1;" vertex="1" parent="5_LL6eo8elXBJWa_j0Nt-1">
          <mxGeometry x="90" y="210" width="120" height="60" as="geometry" />
        </mxCell>
        <mxCell id="5_LL6eo8elXBJWa_j0Nt-13" value="GearUI" style="swimlane;whiteSpace=wrap;html=1;strokeWidth=3;fillColor=#60a917;fontColor=#ffffff;strokeColor=#2D7600;startSize=23;" vertex="1" parent="5_LL6eo8elXBJWa_j0Nt-36">
          <mxGeometry x="550.5" y="100" width="439" height="320" as="geometry" />
        </mxCell>
        <mxCell id="5_LL6eo8elXBJWa_j0Nt-26" value="Drag and drop item to equip" style="rounded=1;whiteSpace=wrap;html=1;" vertex="1" parent="5_LL6eo8elXBJWa_j0Nt-13">
          <mxGeometry x="60" y="60" width="120" height="60" as="geometry" />
        </mxCell>
        <mxCell id="5_LL6eo8elXBJWa_j0Nt-27" value="Display character with the gears equipped" style="rounded=1;whiteSpace=wrap;html=1;" vertex="1" parent="5_LL6eo8elXBJWa_j0Nt-13">
          <mxGeometry x="210" y="60" width="120" height="60" as="geometry" />
        </mxCell>
        <mxCell id="5_LL6eo8elXBJWa_j0Nt-29" value="Some of the slot are fixed in number" style="rounded=1;whiteSpace=wrap;html=1;" vertex="1" parent="5_LL6eo8elXBJWa_j0Nt-13">
          <mxGeometry x="60" y="150" width="120" height="60" as="geometry" />
        </mxCell>
        <mxCell id="5_LL6eo8elXBJWa_j0Nt-32" value="custom layout for groups of slots" style="rounded=1;whiteSpace=wrap;html=1;" vertex="1" parent="5_LL6eo8elXBJWa_j0Nt-13">
          <mxGeometry x="210" y="150" width="120" height="60" as="geometry" />
        </mxCell>
        <mxCell id="5_LL6eo8elXBJWa_j0Nt-51" value="Slot can only store item with suitable type" style="rounded=1;whiteSpace=wrap;html=1;" vertex="1" parent="5_LL6eo8elXBJWa_j0Nt-13">
          <mxGeometry x="60" y="240" width="120" height="60" as="geometry" />
        </mxCell>
        <mxCell id="5_LL6eo8elXBJWa_j0Nt-44" value="InformationUI" style="swimlane;whiteSpace=wrap;html=1;strokeWidth=3;fillColor=#60a917;fontColor=#ffffff;strokeColor=#2D7600;startSize=23;" vertex="1" parent="5_LL6eo8elXBJWa_j0Nt-36">
          <mxGeometry x="1010.5" y="100" width="439" height="320" as="geometry" />
        </mxCell>
        <mxCell id="5_LL6eo8elXBJWa_j0Nt-23" value="Display description of chosen item" style="rounded=1;whiteSpace=wrap;html=1;" vertex="1" parent="5_LL6eo8elXBJWa_j0Nt-44">
          <mxGeometry x="60" y="70" width="120" height="60" as="geometry" />
        </mxCell>
        <mxCell id="5_LL6eo8elXBJWa_j0Nt-49" value="Display player attributes" style="rounded=1;whiteSpace=wrap;html=1;" vertex="1" parent="5_LL6eo8elXBJWa_j0Nt-44">
          <mxGeometry x="210" y="70" width="120" height="60" as="geometry" />
        </mxCell>
        <mxCell id="5_LL6eo8elXBJWa_j0Nt-50" value="a button to transfer between different information" style="rounded=1;whiteSpace=wrap;html=1;" vertex="1" parent="5_LL6eo8elXBJWa_j0Nt-44">
          <mxGeometry x="60" y="150" width="120" height="60" as="geometry" />
        </mxCell>
        <mxCell id="5_LL6eo8elXBJWa_j0Nt-52" value="AccessoryUI" style="swimlane;whiteSpace=wrap;html=1;strokeWidth=3;fillColor=#60a917;fontColor=#ffffff;strokeColor=#2D7600;startSize=23;" vertex="1" parent="5_LL6eo8elXBJWa_j0Nt-36">
          <mxGeometry x="90.5" y="470" width="439" height="340" as="geometry" />
        </mxCell>
        <mxCell id="5_LL6eo8elXBJWa_j0Nt-53" value="Drag and drop item to equip" style="rounded=1;whiteSpace=wrap;html=1;" vertex="1" parent="5_LL6eo8elXBJWa_j0Nt-52">
          <mxGeometry x="60" y="60" width="120" height="60" as="geometry" />
        </mxCell>
        <mxCell id="5_LL6eo8elXBJWa_j0Nt-56" value="Grid layout for slots" style="rounded=1;whiteSpace=wrap;html=1;" vertex="1" parent="5_LL6eo8elXBJWa_j0Nt-52">
          <mxGeometry x="210" y="60" width="120" height="60" as="geometry" />
        </mxCell>
        <mxCell id="5_LL6eo8elXBJWa_j0Nt-57" value="Slot can only store item with suitable type" style="rounded=1;whiteSpace=wrap;html=1;" vertex="1" parent="5_LL6eo8elXBJWa_j0Nt-52">
          <mxGeometry x="60" y="150" width="120" height="60" as="geometry" />
        </mxCell>
        <mxCell id="5_LL6eo8elXBJWa_j0Nt-58" value="Scroll in vertical" style="rounded=1;whiteSpace=wrap;html=1;" vertex="1" parent="5_LL6eo8elXBJWa_j0Nt-52">
          <mxGeometry x="210" y="150" width="120" height="60" as="geometry" />
        </mxCell>
        <mxCell id="5_LL6eo8elXBJWa_j0Nt-59" value="no maximum number" style="rounded=1;whiteSpace=wrap;html=1;" vertex="1" parent="5_LL6eo8elXBJWa_j0Nt-52">
          <mxGeometry x="60" y="230" width="120" height="60" as="geometry" />
        </mxCell>
        <mxCell id="5_LL6eo8elXBJWa_j0Nt-60" value="SpellUI" style="swimlane;whiteSpace=wrap;html=1;strokeWidth=3;fillColor=#60a917;fontColor=#ffffff;strokeColor=#2D7600;startSize=23;" vertex="1" parent="5_LL6eo8elXBJWa_j0Nt-36">
          <mxGeometry x="550.5" y="470" width="439" height="340" as="geometry" />
        </mxCell>
        <mxCell id="5_LL6eo8elXBJWa_j0Nt-61" value="Drag and drop item to equip" style="rounded=1;whiteSpace=wrap;html=1;" vertex="1" parent="5_LL6eo8elXBJWa_j0Nt-60">
          <mxGeometry x="60" y="60" width="120" height="60" as="geometry" />
        </mxCell>
        <mxCell id="5_LL6eo8elXBJWa_j0Nt-62" value="Grid layout for slots" style="rounded=1;whiteSpace=wrap;html=1;" vertex="1" parent="5_LL6eo8elXBJWa_j0Nt-60">
          <mxGeometry x="210" y="60" width="120" height="60" as="geometry" />
        </mxCell>
        <mxCell id="5_LL6eo8elXBJWa_j0Nt-63" value="Slot can only store item with suitable type" style="rounded=1;whiteSpace=wrap;html=1;" vertex="1" parent="5_LL6eo8elXBJWa_j0Nt-60">
          <mxGeometry x="60" y="150" width="120" height="60" as="geometry" />
        </mxCell>
        <mxCell id="5_LL6eo8elXBJWa_j0Nt-64" value="Scroll in vertical" style="rounded=1;whiteSpace=wrap;html=1;" vertex="1" parent="5_LL6eo8elXBJWa_j0Nt-60">
          <mxGeometry x="210" y="150" width="120" height="60" as="geometry" />
        </mxCell>
        <mxCell id="5_LL6eo8elXBJWa_j0Nt-65" value="no maximum number" style="rounded=1;whiteSpace=wrap;html=1;" vertex="1" parent="5_LL6eo8elXBJWa_j0Nt-60">
          <mxGeometry x="60" y="230" width="120" height="60" as="geometry" />
        </mxCell>
        <mxCell id="5_LL6eo8elXBJWa_j0Nt-66" value="WeaponUI" style="swimlane;whiteSpace=wrap;html=1;strokeWidth=3;fillColor=#60a917;fontColor=#ffffff;strokeColor=#2D7600;startSize=23;" vertex="1" parent="5_LL6eo8elXBJWa_j0Nt-36">
          <mxGeometry x="1010.5" y="470" width="439" height="340" as="geometry" />
        </mxCell>
        <mxCell id="5_LL6eo8elXBJWa_j0Nt-67" value="Drag and drop item to equip" style="rounded=1;whiteSpace=wrap;html=1;" vertex="1" parent="5_LL6eo8elXBJWa_j0Nt-66">
          <mxGeometry x="60" y="60" width="120" height="60" as="geometry" />
        </mxCell>
        <mxCell id="5_LL6eo8elXBJWa_j0Nt-68" value="horizontal layout for slots" style="rounded=1;whiteSpace=wrap;html=1;" vertex="1" parent="5_LL6eo8elXBJWa_j0Nt-66">
          <mxGeometry x="210" y="60" width="120" height="60" as="geometry" />
        </mxCell>
        <mxCell id="5_LL6eo8elXBJWa_j0Nt-69" value="Slot can only store item with suitable type" style="rounded=1;whiteSpace=wrap;html=1;" vertex="1" parent="5_LL6eo8elXBJWa_j0Nt-66">
          <mxGeometry x="60" y="150" width="120" height="60" as="geometry" />
        </mxCell>
        <mxCell id="5_LL6eo8elXBJWa_j0Nt-71" value="fixed number" style="rounded=1;whiteSpace=wrap;html=1;" vertex="1" parent="5_LL6eo8elXBJWa_j0Nt-66">
          <mxGeometry x="209.5" y="150" width="120" height="60" as="geometry" />
        </mxCell>
        <mxCell id="5_LL6eo8elXBJWa_j0Nt-72" value="&lt;font style=&quot;font-size: 24px;&quot;&gt;GameUI&lt;/font&gt;" style="swimlane;whiteSpace=wrap;html=1;strokeWidth=3;fillColor=#1ba1e2;fontColor=#ffffff;strokeColor=#006EAF;" vertex="1" parent="1">
          <mxGeometry x="-340" y="-190" width="1540" height="630" as="geometry" />
        </mxCell>
        <mxCell id="5_LL6eo8elXBJWa_j0Nt-73" value="MainUI" style="swimlane;whiteSpace=wrap;html=1;strokeWidth=3;fillColor=#60a917;fontColor=#ffffff;strokeColor=#2D7600;startSize=23;" vertex="1" parent="5_LL6eo8elXBJWa_j0Nt-72">
          <mxGeometry x="90.5" y="100" width="439" height="410" as="geometry" />
        </mxCell>
        <mxCell id="5_LL6eo8elXBJWa_j0Nt-107" value="Display health, mana, stamina, character exp bar" style="rounded=1;whiteSpace=wrap;html=1;" vertex="1" parent="5_LL6eo8elXBJWa_j0Nt-73">
          <mxGeometry x="69.5" y="60" width="120" height="60" as="geometry" />
        </mxCell>
        <mxCell id="5_LL6eo8elXBJWa_j0Nt-110" value="Display current character level" style="rounded=1;whiteSpace=wrap;html=1;" vertex="1" parent="5_LL6eo8elXBJWa_j0Nt-73">
          <mxGeometry x="229.5" y="60" width="120" height="60" as="geometry" />
        </mxCell>
        <mxCell id="5_LL6eo8elXBJWa_j0Nt-112" value="Display gold amount" style="rounded=1;whiteSpace=wrap;html=1;" vertex="1" parent="5_LL6eo8elXBJWa_j0Nt-73">
          <mxGeometry x="69.5" y="150" width="120" height="60" as="geometry" />
        </mxCell>
        <mxCell id="5_LL6eo8elXBJWa_j0Nt-113" value="Display weapon equipped" style="rounded=1;whiteSpace=wrap;html=1;" vertex="1" parent="5_LL6eo8elXBJWa_j0Nt-73">
          <mxGeometry x="229.5" y="150" width="120" height="60" as="geometry" />
        </mxCell>
        <mxCell id="5_LL6eo8elXBJWa_j0Nt-114" value="Display accessory equipped" style="rounded=1;whiteSpace=wrap;html=1;" vertex="1" parent="5_LL6eo8elXBJWa_j0Nt-73">
          <mxGeometry x="69.5" y="240" width="120" height="60" as="geometry" />
        </mxCell>
        <mxCell id="5_LL6eo8elXBJWa_j0Nt-115" value="Display spell equipped" style="rounded=1;whiteSpace=wrap;html=1;" vertex="1" parent="5_LL6eo8elXBJWa_j0Nt-73">
          <mxGeometry x="229.5" y="240" width="120" height="60" as="geometry" />
        </mxCell>
        <mxCell id="5_LL6eo8elXBJWa_j0Nt-116" value="Display map" style="rounded=1;whiteSpace=wrap;html=1;" vertex="1" parent="5_LL6eo8elXBJWa_j0Nt-73">
          <mxGeometry x="69.5" y="320" width="120" height="60" as="geometry" />
        </mxCell>
        <mxCell id="5_LL6eo8elXBJWa_j0Nt-138" value="Display some announcements" style="rounded=1;whiteSpace=wrap;html=1;" vertex="1" parent="5_LL6eo8elXBJWa_j0Nt-73">
          <mxGeometry x="229.5" y="320" width="120" height="60" as="geometry" />
        </mxCell>
        <mxCell id="5_LL6eo8elXBJWa_j0Nt-117" value="MapUI" style="swimlane;whiteSpace=wrap;html=1;strokeWidth=3;fillColor=#60a917;fontColor=#ffffff;strokeColor=#2D7600;" vertex="1" parent="5_LL6eo8elXBJWa_j0Nt-72">
          <mxGeometry x="580" y="100" width="439" height="410" as="geometry" />
        </mxCell>
        <mxCell id="5_LL6eo8elXBJWa_j0Nt-118" value="Display areas with name" style="rounded=1;whiteSpace=wrap;html=1;" vertex="1" parent="5_LL6eo8elXBJWa_j0Nt-117">
          <mxGeometry x="69.5" y="60" width="120" height="60" as="geometry" />
        </mxCell>
        <mxCell id="5_LL6eo8elXBJWa_j0Nt-119" value="Display current position of player on map" style="rounded=1;whiteSpace=wrap;html=1;" vertex="1" parent="5_LL6eo8elXBJWa_j0Nt-117">
          <mxGeometry x="229.5" y="60" width="120" height="60" as="geometry" />
        </mxCell>
        <mxCell id="5_LL6eo8elXBJWa_j0Nt-120" value="Display unlocked area / all area" style="rounded=1;whiteSpace=wrap;html=1;" vertex="1" parent="5_LL6eo8elXBJWa_j0Nt-117">
          <mxGeometry x="69.5" y="150" width="120" height="60" as="geometry" />
        </mxCell>
        <mxCell id="5_LL6eo8elXBJWa_j0Nt-121" value="Display map with areas arranged on it" style="rounded=1;whiteSpace=wrap;html=1;" vertex="1" parent="5_LL6eo8elXBJWa_j0Nt-117">
          <mxGeometry x="229.5" y="150" width="120" height="60" as="geometry" />
        </mxCell>
        <mxCell id="5_LL6eo8elXBJWa_j0Nt-122" value="Can move around map" style="rounded=1;whiteSpace=wrap;html=1;" vertex="1" parent="5_LL6eo8elXBJWa_j0Nt-117">
          <mxGeometry x="69.5" y="240" width="120" height="60" as="geometry" />
        </mxCell>
        <mxCell id="5_LL6eo8elXBJWa_j0Nt-123" value="Display teleportable points" style="rounded=1;whiteSpace=wrap;html=1;" vertex="1" parent="5_LL6eo8elXBJWa_j0Nt-117">
          <mxGeometry x="229.5" y="240" width="120" height="60" as="geometry" />
        </mxCell>
        <mxCell id="5_LL6eo8elXBJWa_j0Nt-126" value="PauseUI" style="swimlane;whiteSpace=wrap;html=1;strokeWidth=3;fillColor=#60a917;fontColor=#ffffff;strokeColor=#2D7600;" vertex="1" parent="5_LL6eo8elXBJWa_j0Nt-72">
          <mxGeometry x="1060" y="100" width="439" height="410" as="geometry" />
        </mxCell>
        <mxCell id="5_LL6eo8elXBJWa_j0Nt-127" value="Resume button" style="rounded=1;whiteSpace=wrap;html=1;" vertex="1" parent="5_LL6eo8elXBJWa_j0Nt-126">
          <mxGeometry x="69.5" y="60" width="120" height="60" as="geometry" />
        </mxCell>
        <mxCell id="5_LL6eo8elXBJWa_j0Nt-128" value="Quit button" style="rounded=1;whiteSpace=wrap;html=1;" vertex="1" parent="5_LL6eo8elXBJWa_j0Nt-126">
          <mxGeometry x="229.5" y="60" width="120" height="60" as="geometry" />
        </mxCell>
        <mxCell id="5_LL6eo8elXBJWa_j0Nt-129" value="Setting button" style="rounded=1;whiteSpace=wrap;html=1;" vertex="1" parent="5_LL6eo8elXBJWa_j0Nt-126">
          <mxGeometry x="69.5" y="150" width="120" height="60" as="geometry" />
        </mxCell>
        <mxCell id="5_LL6eo8elXBJWa_j0Nt-167" value="&lt;font style=&quot;font-size: 24px;&quot;&gt;StartUI&lt;/font&gt;" style="swimlane;whiteSpace=wrap;html=1;strokeWidth=3;fillColor=#1ba1e2;fontColor=#ffffff;strokeColor=#006EAF;" vertex="1" parent="1">
          <mxGeometry x="3000" y="-190" width="1080" height="930" as="geometry" />
        </mxCell>
        <mxCell id="5_LL6eo8elXBJWa_j0Nt-168" value="MainUI" style="swimlane;whiteSpace=wrap;html=1;strokeWidth=3;fillColor=#60a917;fontColor=#ffffff;strokeColor=#2D7600;" vertex="1" parent="5_LL6eo8elXBJWa_j0Nt-167">
          <mxGeometry x="90.5" y="100" width="439" height="320" as="geometry" />
        </mxCell>
        <mxCell id="5_LL6eo8elXBJWa_j0Nt-169" value="Quit button" style="rounded=1;whiteSpace=wrap;html=1;" vertex="1" parent="5_LL6eo8elXBJWa_j0Nt-168">
          <mxGeometry x="229" y="130" width="120" height="60" as="geometry" />
        </mxCell>
        <mxCell id="5_LL6eo8elXBJWa_j0Nt-170" value="Load game button" style="rounded=1;whiteSpace=wrap;html=1;" vertex="1" parent="5_LL6eo8elXBJWa_j0Nt-168">
          <mxGeometry x="229" y="50" width="120" height="60" as="geometry" />
        </mxCell>
        <mxCell id="5_LL6eo8elXBJWa_j0Nt-171" value="New game button" style="rounded=1;whiteSpace=wrap;html=1;" vertex="1" parent="5_LL6eo8elXBJWa_j0Nt-168">
          <mxGeometry x="90" y="50" width="120" height="60" as="geometry" />
        </mxCell>
        <mxCell id="5_LL6eo8elXBJWa_j0Nt-172" value="Setting button" style="rounded=1;whiteSpace=wrap;html=1;" vertex="1" parent="5_LL6eo8elXBJWa_j0Nt-168">
          <mxGeometry x="90" y="130" width="120" height="60" as="geometry" />
        </mxCell>
        <mxCell id="5_LL6eo8elXBJWa_j0Nt-175" value="LoadUI" style="swimlane;whiteSpace=wrap;html=1;strokeWidth=3;fillColor=#60a917;fontColor=#ffffff;strokeColor=#2D7600;startSize=23;" vertex="1" parent="5_LL6eo8elXBJWa_j0Nt-167">
          <mxGeometry x="550.5" y="100" width="439" height="330" as="geometry" />
        </mxCell>
        <mxCell id="5_LL6eo8elXBJWa_j0Nt-176" value="scroll in vertical" style="rounded=1;whiteSpace=wrap;html=1;" vertex="1" parent="5_LL6eo8elXBJWa_j0Nt-175">
          <mxGeometry x="60" y="60" width="120" height="60" as="geometry" />
        </mxCell>
        <mxCell id="5_LL6eo8elXBJWa_j0Nt-177" value="list save games" style="rounded=1;whiteSpace=wrap;html=1;" vertex="1" parent="5_LL6eo8elXBJWa_j0Nt-175">
          <mxGeometry x="210" y="60" width="120" height="60" as="geometry" />
        </mxCell>
        <mxCell id="5_LL6eo8elXBJWa_j0Nt-178" value="delete button foreach save game" style="rounded=1;whiteSpace=wrap;html=1;" vertex="1" parent="5_LL6eo8elXBJWa_j0Nt-175">
          <mxGeometry x="60" y="150" width="120" height="60" as="geometry" />
        </mxCell>
        <mxCell id="5_LL6eo8elXBJWa_j0Nt-179" value="accept button for each save game" style="rounded=1;whiteSpace=wrap;html=1;" vertex="1" parent="5_LL6eo8elXBJWa_j0Nt-175">
          <mxGeometry x="210" y="150" width="120" height="60" as="geometry" />
        </mxCell>
        <mxCell id="5_LL6eo8elXBJWa_j0Nt-249" value="Close button" style="rounded=1;whiteSpace=wrap;html=1;" vertex="1" parent="5_LL6eo8elXBJWa_j0Nt-175">
          <mxGeometry x="60.5" y="240" width="120" height="60" as="geometry" />
        </mxCell>
        <mxCell id="5_LL6eo8elXBJWa_j0Nt-208" value="&lt;font style=&quot;font-size: 24px;&quot;&gt;SupportUI&lt;/font&gt;" style="swimlane;whiteSpace=wrap;html=1;strokeWidth=3;fillColor=#d80073;fontColor=#ffffff;strokeColor=#A50040;" vertex="1" parent="1">
          <mxGeometry x="1300" y="990" width="1540" height="990" as="geometry" />
        </mxCell>
        <mxCell id="5_LL6eo8elXBJWa_j0Nt-134" value="&lt;font style=&quot;font-size: 24px;&quot;&gt;Setting&lt;span style=&quot;background-color: transparent; color: light-dark(rgb(255, 255, 255), rgb(18, 18, 18));&quot;&gt;UI&lt;/span&gt;&lt;/font&gt;" style="swimlane;whiteSpace=wrap;html=1;strokeWidth=3;fillColor=#60a917;fontColor=#ffffff;strokeColor=#2D7600;" vertex="1" parent="5_LL6eo8elXBJWa_j0Nt-208">
          <mxGeometry x="80.5" y="80" width="1409.5" height="490" as="geometry" />
        </mxCell>
        <mxCell id="5_LL6eo8elXBJWa_j0Nt-140" value="SoundUI" style="swimlane;whiteSpace=wrap;html=1;strokeWidth=3;fillColor=#a20025;fontColor=#ffffff;strokeColor=#6F0000;startSize=23;" vertex="1" parent="5_LL6eo8elXBJWa_j0Nt-134">
          <mxGeometry x="29.5" y="180" width="439" height="250" as="geometry" />
        </mxCell>
        <mxCell id="5_LL6eo8elXBJWa_j0Nt-149" value="Adjust using slider" style="rounded=1;whiteSpace=wrap;html=1;" vertex="1" parent="5_LL6eo8elXBJWa_j0Nt-140">
          <mxGeometry x="64" y="60" width="120" height="60" as="geometry" />
        </mxCell>
        <mxCell id="5_LL6eo8elXBJWa_j0Nt-150" value="change sfx, music, voice chat" style="rounded=1;whiteSpace=wrap;html=1;" vertex="1" parent="5_LL6eo8elXBJWa_j0Nt-140">
          <mxGeometry x="234" y="60" width="120" height="60" as="geometry" />
        </mxCell>
        <mxCell id="5_LL6eo8elXBJWa_j0Nt-154" value="Able to turn off sound" style="rounded=1;whiteSpace=wrap;html=1;" vertex="1" parent="5_LL6eo8elXBJWa_j0Nt-140">
          <mxGeometry x="64" y="150" width="120" height="60" as="geometry" />
        </mxCell>
        <mxCell id="5_LL6eo8elXBJWa_j0Nt-160" value="Scrollable in vertical" style="rounded=1;whiteSpace=wrap;html=1;" vertex="1" parent="5_LL6eo8elXBJWa_j0Nt-140">
          <mxGeometry x="234" y="150" width="120" height="60" as="geometry" />
        </mxCell>
        <mxCell id="5_LL6eo8elXBJWa_j0Nt-151" value="Split into multiple tabs" style="rounded=1;whiteSpace=wrap;html=1;" vertex="1" parent="5_LL6eo8elXBJWa_j0Nt-134">
          <mxGeometry x="89.5" y="50" width="120" height="60" as="geometry" />
        </mxCell>
        <mxCell id="5_LL6eo8elXBJWa_j0Nt-152" value="Stop game time" style="rounded=1;whiteSpace=wrap;html=1;" vertex="1" parent="5_LL6eo8elXBJWa_j0Nt-134">
          <mxGeometry x="239.5" y="50" width="120" height="60" as="geometry" />
        </mxCell>
        <mxCell id="5_LL6eo8elXBJWa_j0Nt-153" value="click to change and display among tabs" style="rounded=1;whiteSpace=wrap;html=1;" vertex="1" parent="5_LL6eo8elXBJWa_j0Nt-134">
          <mxGeometry x="389.5" y="50" width="120" height="60" as="geometry" />
        </mxCell>
        <mxCell id="5_LL6eo8elXBJWa_j0Nt-155" value="KeyboardUI" style="swimlane;whiteSpace=wrap;html=1;strokeWidth=3;fillColor=#a20025;fontColor=#ffffff;strokeColor=#6F0000;startSize=23;" vertex="1" parent="5_LL6eo8elXBJWa_j0Nt-134">
          <mxGeometry x="489.5" y="180" width="439" height="250" as="geometry" />
        </mxCell>
        <mxCell id="5_LL6eo8elXBJWa_j0Nt-156" value="Display all action with key" style="rounded=1;whiteSpace=wrap;html=1;" vertex="1" parent="5_LL6eo8elXBJWa_j0Nt-155">
          <mxGeometry x="64" y="60" width="120" height="60" as="geometry" />
        </mxCell>
        <mxCell id="5_LL6eo8elXBJWa_j0Nt-157" value="Can change key cap" style="rounded=1;whiteSpace=wrap;html=1;" vertex="1" parent="5_LL6eo8elXBJWa_j0Nt-155">
          <mxGeometry x="234" y="60" width="120" height="60" as="geometry" />
        </mxCell>
        <mxCell id="5_LL6eo8elXBJWa_j0Nt-158" value="Alert for duplicate keycap (a warning mark beside action)" style="rounded=1;whiteSpace=wrap;html=1;" vertex="1" parent="5_LL6eo8elXBJWa_j0Nt-155">
          <mxGeometry x="64" y="150" width="120" height="60" as="geometry" />
        </mxCell>
        <mxCell id="5_LL6eo8elXBJWa_j0Nt-161" value="Scrollable in vertical" style="rounded=1;whiteSpace=wrap;html=1;" vertex="1" parent="5_LL6eo8elXBJWa_j0Nt-155">
          <mxGeometry x="236" y="150" width="120" height="60" as="geometry" />
        </mxCell>
        <mxCell id="5_LL6eo8elXBJWa_j0Nt-162" value="GeneralUI" style="swimlane;whiteSpace=wrap;html=1;strokeWidth=3;fillColor=#a20025;fontColor=#ffffff;strokeColor=#6F0000;startSize=23;" vertex="1" parent="5_LL6eo8elXBJWa_j0Nt-134">
          <mxGeometry x="949.5" y="180" width="439" height="250" as="geometry" />
        </mxCell>
        <mxCell id="5_LL6eo8elXBJWa_j0Nt-163" value="Can input fps" style="rounded=1;whiteSpace=wrap;html=1;" vertex="1" parent="5_LL6eo8elXBJWa_j0Nt-162">
          <mxGeometry x="64" y="60" width="120" height="60" as="geometry" />
        </mxCell>
        <mxCell id="5_LL6eo8elXBJWa_j0Nt-164" value="Can change graphic" style="rounded=1;whiteSpace=wrap;html=1;" vertex="1" parent="5_LL6eo8elXBJWa_j0Nt-162">
          <mxGeometry x="234" y="60" width="120" height="60" as="geometry" />
        </mxCell>
        <mxCell id="5_LL6eo8elXBJWa_j0Nt-165" value="Can change fov" style="rounded=1;whiteSpace=wrap;html=1;" vertex="1" parent="5_LL6eo8elXBJWa_j0Nt-162">
          <mxGeometry x="64" y="150" width="120" height="60" as="geometry" />
        </mxCell>
        <mxCell id="5_LL6eo8elXBJWa_j0Nt-166" value="Can choose languages" style="rounded=1;whiteSpace=wrap;html=1;" vertex="1" parent="5_LL6eo8elXBJWa_j0Nt-162">
          <mxGeometry x="236" y="150" width="120" height="60" as="geometry" />
        </mxCell>
        <mxCell id="5_LL6eo8elXBJWa_j0Nt-243" value="PopUpUI" style="swimlane;whiteSpace=wrap;html=1;strokeWidth=3;fillColor=#60a917;fontColor=#ffffff;strokeColor=#2D7600;startSize=23;" vertex="1" parent="5_LL6eo8elXBJWa_j0Nt-208">
          <mxGeometry x="100" y="600" width="439" height="330" as="geometry" />
        </mxCell>
        <mxCell id="5_LL6eo8elXBJWa_j0Nt-244" value="Accept Button" style="rounded=1;whiteSpace=wrap;html=1;" vertex="1" parent="5_LL6eo8elXBJWa_j0Nt-243">
          <mxGeometry x="60" y="60" width="120" height="60" as="geometry" />
        </mxCell>
        <mxCell id="5_LL6eo8elXBJWa_j0Nt-245" value="Cancel Button" style="rounded=1;whiteSpace=wrap;html=1;" vertex="1" parent="5_LL6eo8elXBJWa_j0Nt-243">
          <mxGeometry x="210" y="60" width="120" height="60" as="geometry" />
        </mxCell>
        <mxCell id="5_LL6eo8elXBJWa_j0Nt-246" value="message" style="rounded=1;whiteSpace=wrap;html=1;" vertex="1" parent="5_LL6eo8elXBJWa_j0Nt-243">
          <mxGeometry x="60" y="150" width="120" height="60" as="geometry" />
        </mxCell>
        <mxCell id="5_LL6eo8elXBJWa_j0Nt-248" value="All three above can be customize in feature and text" style="rounded=1;whiteSpace=wrap;html=1;" vertex="1" parent="5_LL6eo8elXBJWa_j0Nt-243">
          <mxGeometry x="210" y="150" width="120" height="60" as="geometry" />
        </mxCell>
        <mxCell id="5_LL6eo8elXBJWa_j0Nt-250" value="&lt;font style=&quot;font-size: 160px;&quot;&gt;===UI===&lt;/font&gt;" style="text;html=1;align=center;verticalAlign=middle;resizable=0;points=[];autosize=1;strokeColor=none;fillColor=none;" vertex="1" parent="1">
          <mxGeometry x="1730" y="-560" width="740" height="210" as="geometry" />
        </mxCell>
        <mxCell id="5_LL6eo8elXBJWa_j0Nt-251" value="&lt;font style=&quot;font-size: 160px;&quot;&gt;===Entity===&lt;/font&gt;" style="text;html=1;align=center;verticalAlign=middle;resizable=0;points=[];autosize=1;strokeColor=none;fillColor=none;" vertex="1" parent="1">
          <mxGeometry x="-9190" y="-480" width="980" height="210" as="geometry" />
        </mxCell>
        <mxCell id="5_LL6eo8elXBJWa_j0Nt-252" value="&lt;font style=&quot;font-size: 160px;&quot;&gt;===Manager===&lt;/font&gt;" style="text;html=1;align=center;verticalAlign=middle;resizable=0;points=[];autosize=1;strokeColor=none;fillColor=none;" vertex="1" parent="1">
          <mxGeometry x="-6140" y="-11820" width="1220" height="210" as="geometry" />
        </mxCell>
        <mxCell id="5_LL6eo8elXBJWa_j0Nt-253" value="&lt;font style=&quot;font-size: 160px;&quot;&gt;===Component===&lt;/font&gt;" style="text;html=1;align=center;verticalAlign=middle;resizable=0;points=[];autosize=1;strokeColor=none;fillColor=none;" vertex="1" parent="1">
          <mxGeometry x="10390" y="-11470" width="1410" height="210" as="geometry" />
        </mxCell>
        <mxCell id="5_LL6eo8elXBJWa_j0Nt-254" value="&lt;font style=&quot;font-size: 160px;&quot;&gt;===Spawner===&lt;/font&gt;" style="text;html=1;align=center;verticalAlign=middle;resizable=0;points=[];autosize=1;strokeColor=none;fillColor=none;" vertex="1" parent="1">
          <mxGeometry x="15340" y="-540" width="1220" height="210" as="geometry" />
        </mxCell>
        <mxCell id="5_LL6eo8elXBJWa_j0Nt-265" value="Player" style="swimlane;whiteSpace=wrap;html=1;strokeWidth=3;fillColor=#60a917;fontColor=#ffffff;strokeColor=#2D7600;" vertex="1" parent="1">
          <mxGeometry x="-8925" y="-210" width="439" height="410" as="geometry" />
        </mxCell>
        <mxCell id="5_LL6eo8elXBJWa_j0Nt-266" value="Move 4 direction" style="rounded=1;whiteSpace=wrap;html=1;" vertex="1" parent="5_LL6eo8elXBJWa_j0Nt-265">
          <mxGeometry x="15" y="60" width="120" height="60" as="geometry" />
        </mxCell>
        <mxCell id="5_LL6eo8elXBJWa_j0Nt-267" value="Leg Collider" style="rounded=1;whiteSpace=wrap;html=1;" vertex="1" parent="5_LL6eo8elXBJWa_j0Nt-265">
          <mxGeometry x="159.5" y="60" width="120" height="60" as="geometry" />
        </mxCell>
        <mxCell id="5_LL6eo8elXBJWa_j0Nt-268" value="Damage Collider" style="rounded=1;whiteSpace=wrap;html=1;" vertex="1" parent="5_LL6eo8elXBJWa_j0Nt-265">
          <mxGeometry x="15" y="150" width="120" height="60" as="geometry" />
        </mxCell>
        <mxCell id="5_LL6eo8elXBJWa_j0Nt-269" value="Inventory" style="rounded=1;whiteSpace=wrap;html=1;" vertex="1" parent="5_LL6eo8elXBJWa_j0Nt-265">
          <mxGeometry x="159.5" y="150" width="120" height="60" as="geometry" />
        </mxCell>
        <mxCell id="5_LL6eo8elXBJWa_j0Nt-279" value="Rigidbody2D" style="rounded=1;whiteSpace=wrap;html=1;" vertex="1" parent="5_LL6eo8elXBJWa_j0Nt-265">
          <mxGeometry x="295" y="60" width="120" height="60" as="geometry" />
        </mxCell>
        <mxCell id="5_LL6eo8elXBJWa_j0Nt-282" value="Weapon Inventory" style="rounded=1;whiteSpace=wrap;html=1;" vertex="1" parent="5_LL6eo8elXBJWa_j0Nt-265">
          <mxGeometry x="295" y="150" width="120" height="60" as="geometry" />
        </mxCell>
        <mxCell id="5_LL6eo8elXBJWa_j0Nt-283" value="Gear Inventory" style="rounded=1;whiteSpace=wrap;html=1;" vertex="1" parent="5_LL6eo8elXBJWa_j0Nt-265">
          <mxGeometry x="15" y="240" width="120" height="60" as="geometry" />
        </mxCell>
        <mxCell id="5_LL6eo8elXBJWa_j0Nt-284" value="Spell Inventory" style="rounded=1;whiteSpace=wrap;html=1;" vertex="1" parent="5_LL6eo8elXBJWa_j0Nt-265">
          <mxGeometry x="159.5" y="240" width="120" height="60" as="geometry" />
        </mxCell>
        <mxCell id="5_LL6eo8elXBJWa_j0Nt-285" value="Accessory Inventory" style="rounded=1;whiteSpace=wrap;html=1;" vertex="1" parent="5_LL6eo8elXBJWa_j0Nt-265">
          <mxGeometry x="295" y="240" width="120" height="60" as="geometry" />
        </mxCell>
      </root>
    </mxGraphModel>
  </diagram>
</mxfile>
